<svg width="190" height="33" viewBox="0 0 190 33" fill="none" xmlns="http://www.w3.org/2000/svg">
<path d="M57.0737 0.80418C56.8263 0.313078 56.3256 0 55.7826 0C55.2397 0 54.739 0.313078 54.4916 0.80418L50.0514 9.6563L40.4048 11.2155C39.8679 11.3015 39.4214 11.6882 39.2525 12.2162C39.0836 12.7441 39.2223 13.3212 39.6024 13.714L46.5041 20.7429L44.9838 30.5588C44.8993 31.1052 45.1225 31.6577 45.5629 31.983C46.0033 32.3084 46.5825 32.3575 47.0711 32.1058L55.7826 27.6L64.4881 32.1058C64.9708 32.3575 65.5559 32.3084 65.9963 31.983C66.4367 31.6577 66.66 31.1113 66.5755 30.5588L65.0492 20.7429L71.9508 13.714C72.3369 13.3212 72.4696 12.7441 72.3007 12.2162C72.1318 11.6882 71.6914 11.3015 71.1484 11.2155L61.5079 9.6563L57.0737 0.80418Z" fill="#020E12"/>
<path d="M135.438 0.80418C135.191 0.313078 134.69 0 134.147 0C133.604 0 133.104 0.313078 132.856 0.80418L128.416 9.6563L118.769 11.2155C118.232 11.3015 117.786 11.6882 117.617 12.2162C117.448 12.7441 117.587 13.3212 117.967 13.714L124.869 20.7429L123.348 30.5588C123.264 31.1052 123.487 31.6577 123.928 31.983C124.368 32.3084 124.947 32.3575 125.436 32.1058L134.147 27.6L142.853 32.1058C143.335 32.3575 143.921 32.3084 144.361 31.983C144.801 31.6577 145.025 31.1113 144.94 30.5588L143.414 20.7429L150.315 13.714C150.702 13.3212 150.834 12.7441 150.665 12.2162C150.496 11.6882 150.056 11.3015 149.513 11.2155L139.872 9.6563L135.438 0.80418Z" fill="#020E12"/>
<path d="M174.62 0.80418C174.372 0.313078 173.872 0 173.329 0C172.786 0 172.285 0.313078 172.038 0.80418L167.598 9.6563L157.951 11.2155C157.414 11.3015 156.968 11.6882 156.799 12.2162C156.63 12.7441 156.768 13.3212 157.149 13.714L164.05 20.7429L162.53 30.5588C162.445 31.1052 162.669 31.6577 163.109 31.983C163.549 32.3084 164.129 32.3575 164.617 32.1058L173.329 27.6L182.034 32.1058C182.517 32.3575 183.102 32.3084 183.542 31.983C183.983 31.6577 184.206 31.1113 184.122 30.5588L182.595 20.7429L189.497 13.714C189.883 13.3212 190.016 12.7441 189.847 12.2162C189.678 11.6882 189.238 11.3015 188.695 11.2155L179.054 9.6563L174.62 0.80418Z" fill="#020E12"/>
<path d="M17.8922 0.80418C17.6448 0.313078 17.1441 0 16.6011 0C16.0582 0 15.5574 0.313078 15.3101 0.80418L10.8699 9.6563L1.22328 11.2155C0.686349 11.3015 0.239914 11.6882 0.0709934 12.2162C-0.0979278 12.7441 0.0408288 13.3212 0.420901 13.714L7.32254 20.7429L5.80225 30.5588C5.71778 31.1052 5.941 31.6577 6.3814 31.983C6.8218 32.3084 7.40096 32.3575 7.88963 32.1058L16.6011 27.6L25.3066 32.1058C25.7892 32.3575 26.3744 32.3084 26.8148 31.983C27.2552 31.6577 27.4784 31.1113 27.394 30.5588L25.8677 20.7429L32.7693 13.714C33.1554 13.3212 33.2881 12.7441 33.1192 12.2162C32.9503 11.6882 32.5099 11.3015 31.9669 11.2155L22.3264 9.6563L17.8922 0.80418Z" fill="#020E12"/>
<path d="M96.2558 0.80418C96.0085 0.313078 95.5077 0 94.9648 0C94.4218 0 93.9211 0.313078 93.6737 0.80418L89.2335 9.6563L79.5869 11.2155C79.05 11.3015 78.6036 11.6882 78.4346 12.2162C78.2657 12.7441 78.4045 13.3212 78.7845 13.714L85.6862 20.7429L84.1659 30.5588C84.0814 31.1052 84.3046 31.6577 84.7451 31.983C85.1855 32.3084 85.7646 32.3575 86.2533 32.1058L94.9648 27.6L103.67 32.1058C104.153 32.3575 104.738 32.3084 105.178 31.983C105.619 31.6577 105.842 31.1113 105.758 30.5588L104.231 20.7429L111.133 13.714C111.519 13.3212 111.652 12.7441 111.483 12.2162C111.314 11.6882 110.874 11.3015 110.331 11.2155L100.69 9.6563L96.2558 0.80418Z" fill="#020E12"/>
</svg>
